<mxfile host="app.diagrams.net" modified="2023-06-10T10:25:36.247Z" agent="Mozilla/5.0 (Windows NT 10.0; Win64; x64) AppleWebKit/537.36 (KHTML, like Gecko) Chrome/112.0.0.0 Safari/537.36" etag="bIZ0ZzRaP3yPG0DCodoh" version="21.3.8" type="github">
  <diagram name="Страница 1" id="t51-01wL2G1vsegapOZN">
    <mxGraphModel dx="1434" dy="796" grid="1" gridSize="10" guides="1" tooltips="1" connect="1" arrows="1" fold="1" page="1" pageScale="1" pageWidth="827" pageHeight="1169" math="0" shadow="0">
      <root>
        <mxCell id="0" />
        <mxCell id="1" parent="0" />
        <mxCell id="7dKSkmbmstNWWW0OIYT7-43" value="" style="edgeStyle=orthogonalEdgeStyle;rounded=0;orthogonalLoop=1;jettySize=auto;html=1;" edge="1" parent="1" source="7dKSkmbmstNWWW0OIYT7-3" target="7dKSkmbmstNWWW0OIYT7-35">
          <mxGeometry relative="1" as="geometry" />
        </mxCell>
        <mxCell id="7dKSkmbmstNWWW0OIYT7-3" value="Начало" style="ellipse;whiteSpace=wrap;html=1;aspect=fixed;" vertex="1" parent="1">
          <mxGeometry x="160" y="100" width="80" height="80" as="geometry" />
        </mxCell>
        <mxCell id="7dKSkmbmstNWWW0OIYT7-36" value="" style="edgeStyle=orthogonalEdgeStyle;rounded=0;orthogonalLoop=1;jettySize=auto;html=1;" edge="1" parent="1" source="7dKSkmbmstNWWW0OIYT7-31" target="7dKSkmbmstNWWW0OIYT7-33">
          <mxGeometry relative="1" as="geometry" />
        </mxCell>
        <mxCell id="7dKSkmbmstNWWW0OIYT7-47" value="" style="edgeStyle=orthogonalEdgeStyle;rounded=0;orthogonalLoop=1;jettySize=auto;html=1;" edge="1" parent="1" source="7dKSkmbmstNWWW0OIYT7-31" target="7dKSkmbmstNWWW0OIYT7-46">
          <mxGeometry relative="1" as="geometry" />
        </mxCell>
        <mxCell id="7dKSkmbmstNWWW0OIYT7-31" value="Пользователь ввел 1" style="rhombus;whiteSpace=wrap;html=1;" vertex="1" parent="1">
          <mxGeometry x="122.5" y="350" width="155" height="90" as="geometry" />
        </mxCell>
        <mxCell id="7dKSkmbmstNWWW0OIYT7-37" value="" style="edgeStyle=orthogonalEdgeStyle;rounded=0;orthogonalLoop=1;jettySize=auto;html=1;" edge="1" parent="1" source="7dKSkmbmstNWWW0OIYT7-33" target="7dKSkmbmstNWWW0OIYT7-34">
          <mxGeometry relative="1" as="geometry" />
        </mxCell>
        <mxCell id="7dKSkmbmstNWWW0OIYT7-49" value="" style="edgeStyle=orthogonalEdgeStyle;rounded=0;orthogonalLoop=1;jettySize=auto;html=1;" edge="1" parent="1" source="7dKSkmbmstNWWW0OIYT7-33" target="7dKSkmbmstNWWW0OIYT7-48">
          <mxGeometry relative="1" as="geometry" />
        </mxCell>
        <mxCell id="7dKSkmbmstNWWW0OIYT7-33" value="Пользователь ввел 2" style="rhombus;whiteSpace=wrap;html=1;" vertex="1" parent="1">
          <mxGeometry x="122.5" y="460" width="155" height="90" as="geometry" />
        </mxCell>
        <mxCell id="7dKSkmbmstNWWW0OIYT7-51" value="" style="edgeStyle=orthogonalEdgeStyle;rounded=0;orthogonalLoop=1;jettySize=auto;html=1;" edge="1" parent="1" source="7dKSkmbmstNWWW0OIYT7-34" target="7dKSkmbmstNWWW0OIYT7-50">
          <mxGeometry relative="1" as="geometry" />
        </mxCell>
        <mxCell id="7dKSkmbmstNWWW0OIYT7-34" value="Пользователь ввел 3" style="rhombus;whiteSpace=wrap;html=1;" vertex="1" parent="1">
          <mxGeometry x="122.5" y="580" width="155" height="90" as="geometry" />
        </mxCell>
        <mxCell id="7dKSkmbmstNWWW0OIYT7-45" value="" style="edgeStyle=orthogonalEdgeStyle;rounded=0;orthogonalLoop=1;jettySize=auto;html=1;" edge="1" parent="1" source="7dKSkmbmstNWWW0OIYT7-35" target="7dKSkmbmstNWWW0OIYT7-31">
          <mxGeometry relative="1" as="geometry" />
        </mxCell>
        <mxCell id="7dKSkmbmstNWWW0OIYT7-55" value="" style="edgeStyle=orthogonalEdgeStyle;rounded=0;orthogonalLoop=1;jettySize=auto;html=1;" edge="1" parent="1" source="7dKSkmbmstNWWW0OIYT7-35" target="7dKSkmbmstNWWW0OIYT7-54">
          <mxGeometry relative="1" as="geometry" />
        </mxCell>
        <mxCell id="7dKSkmbmstNWWW0OIYT7-35" value="Пока пользователь&lt;br&gt;&amp;nbsp;не ввел 4" style="rhombus;whiteSpace=wrap;html=1;" vertex="1" parent="1">
          <mxGeometry x="131.25" y="210" width="137.5" height="110" as="geometry" />
        </mxCell>
        <mxCell id="7dKSkmbmstNWWW0OIYT7-39" value="Нет" style="text;html=1;strokeColor=none;fillColor=none;align=center;verticalAlign=middle;whiteSpace=wrap;rounded=0;" vertex="1" parent="1">
          <mxGeometry x="131.25" y="425" width="60" height="30" as="geometry" />
        </mxCell>
        <mxCell id="7dKSkmbmstNWWW0OIYT7-40" value="Нет" style="text;html=1;strokeColor=none;fillColor=none;align=center;verticalAlign=middle;whiteSpace=wrap;rounded=0;" vertex="1" parent="1">
          <mxGeometry x="131.25" y="535" width="60" height="30" as="geometry" />
        </mxCell>
        <mxCell id="7dKSkmbmstNWWW0OIYT7-46" value="Добавляем заказ&amp;nbsp;&lt;br&gt;в очередь" style="rounded=1;whiteSpace=wrap;html=1;" vertex="1" parent="1">
          <mxGeometry x="310" y="365" width="120" height="60" as="geometry" />
        </mxCell>
        <mxCell id="7dKSkmbmstNWWW0OIYT7-48" value="Удаляем заказ&lt;br&gt;из очереди" style="rounded=1;whiteSpace=wrap;html=1;" vertex="1" parent="1">
          <mxGeometry x="310" y="475" width="120" height="60" as="geometry" />
        </mxCell>
        <mxCell id="7dKSkmbmstNWWW0OIYT7-50" value="Показываем очередь" style="rounded=1;whiteSpace=wrap;html=1;" vertex="1" parent="1">
          <mxGeometry x="310" y="595" width="120" height="60" as="geometry" />
        </mxCell>
        <mxCell id="7dKSkmbmstNWWW0OIYT7-52" value="" style="endArrow=classic;html=1;rounded=0;exitX=0;exitY=0.5;exitDx=0;exitDy=0;entryX=0;entryY=0.5;entryDx=0;entryDy=0;" edge="1" parent="1" source="7dKSkmbmstNWWW0OIYT7-34" target="7dKSkmbmstNWWW0OIYT7-35">
          <mxGeometry width="50" height="50" relative="1" as="geometry">
            <mxPoint y="690" as="sourcePoint" />
            <mxPoint x="50" y="640" as="targetPoint" />
            <Array as="points">
              <mxPoint x="80" y="625" />
              <mxPoint x="80" y="265" />
            </Array>
          </mxGeometry>
        </mxCell>
        <mxCell id="7dKSkmbmstNWWW0OIYT7-53" value="Нет" style="text;html=1;strokeColor=none;fillColor=none;align=center;verticalAlign=middle;whiteSpace=wrap;rounded=0;" vertex="1" parent="1">
          <mxGeometry x="100" y="640" width="60" height="30" as="geometry" />
        </mxCell>
        <mxCell id="7dKSkmbmstNWWW0OIYT7-54" value="Конец" style="ellipse;whiteSpace=wrap;html=1;" vertex="1" parent="1">
          <mxGeometry x="320" y="225" width="80" height="80" as="geometry" />
        </mxCell>
        <mxCell id="7dKSkmbmstNWWW0OIYT7-56" value="" style="endArrow=classic;html=1;rounded=0;exitX=1;exitY=0.5;exitDx=0;exitDy=0;" edge="1" parent="1" source="7dKSkmbmstNWWW0OIYT7-46">
          <mxGeometry width="50" height="50" relative="1" as="geometry">
            <mxPoint x="460" y="400" as="sourcePoint" />
            <mxPoint x="80" y="630" as="targetPoint" />
            <Array as="points">
              <mxPoint x="480" y="395" />
              <mxPoint x="480" y="720" />
              <mxPoint x="80" y="720" />
            </Array>
          </mxGeometry>
        </mxCell>
        <mxCell id="7dKSkmbmstNWWW0OIYT7-57" value="" style="endArrow=classic;html=1;rounded=0;exitX=1;exitY=0.5;exitDx=0;exitDy=0;" edge="1" parent="1" source="7dKSkmbmstNWWW0OIYT7-48">
          <mxGeometry width="50" height="50" relative="1" as="geometry">
            <mxPoint x="490" y="550" as="sourcePoint" />
            <mxPoint x="480" y="505" as="targetPoint" />
          </mxGeometry>
        </mxCell>
        <mxCell id="7dKSkmbmstNWWW0OIYT7-58" value="" style="endArrow=classic;html=1;rounded=0;exitX=1;exitY=0.5;exitDx=0;exitDy=0;" edge="1" parent="1" source="7dKSkmbmstNWWW0OIYT7-50">
          <mxGeometry width="50" height="50" relative="1" as="geometry">
            <mxPoint x="560" y="760" as="sourcePoint" />
            <mxPoint x="480" y="625" as="targetPoint" />
          </mxGeometry>
        </mxCell>
        <mxCell id="7dKSkmbmstNWWW0OIYT7-59" value="Да" style="text;html=1;strokeColor=none;fillColor=none;align=center;verticalAlign=middle;whiteSpace=wrap;rounded=0;" vertex="1" parent="1">
          <mxGeometry x="260" y="585" width="60" height="30" as="geometry" />
        </mxCell>
        <mxCell id="7dKSkmbmstNWWW0OIYT7-60" value="Да" style="text;html=1;strokeColor=none;fillColor=none;align=center;verticalAlign=middle;whiteSpace=wrap;rounded=0;" vertex="1" parent="1">
          <mxGeometry x="260" y="475" width="60" height="30" as="geometry" />
        </mxCell>
        <mxCell id="7dKSkmbmstNWWW0OIYT7-61" value="Да" style="text;html=1;strokeColor=none;fillColor=none;align=center;verticalAlign=middle;whiteSpace=wrap;rounded=0;" vertex="1" parent="1">
          <mxGeometry x="260" y="350" width="60" height="30" as="geometry" />
        </mxCell>
      </root>
    </mxGraphModel>
  </diagram>
</mxfile>
